<svg width="800" height="600" xmlns="http://www.w3.org/2000/svg" stroke="null" style="vector-effect: non-scaling-stroke;">

 <g stroke="null">
  <title stroke="null">Layer 1</title>
  <rect id="svg_14" height="91.42872" width="22.85718" y="130.71497" x="223.57245" stroke-width="0" stroke="#fff47d" fill="none"/>
  <rect id="svg_15" height="0" width="0.71429" y="342.14389" x="305.71544" stroke-width="0" stroke="#fff47d" fill="none"/>
  <path stroke-width="2" id="svg_20" d="m35.99869,343.94569l195.39411,0.11777l-6.34058,14.79398l-182.63808,-0.3533l-6.41545,-14.55845l0.00001,0zm1.34277,-196.79345l192.78316,-0.3533l5.59478,15.17636l-204.04741,0.11777l5.66947,-14.94083zm-19.02534,98.61054l230.68455,-0.3533l-0.29819,15.17637l-230.23717,-0.23553l-0.14919,-14.58754zm230.87551,1.4076c0,100.47115 -51.78352,182.20545 -115.44453,182.20545c-63.6335,0 -115.40737,-81.74908 -115.40737,-182.20545c0,-100.45687 51.78323,-182.19116 115.40737,-182.19116c63.66102,-0.01476 115.44453,81.73429 115.44453,182.19116zm-115.43546,-196.79346c-68.71309,0 -124.62901,88.27328 -124.62901,196.77866c0,108.52017 55.91593,196.79343 124.62901,196.79343c68.7505,0 124.65709,-88.27327 124.65709,-196.79343c0,-108.50538 -55.90659,-196.77866 -124.65709,-196.77866zm34.9744,196.79346c0,107.36179 -18.42515,182.20545 -34.9744,182.20545c-16.53052,0 -34.95538,-74.84367 -34.95538,-182.20545c0,-107.39135 18.41578,-182.19116 34.95538,-182.19116c16.5399,-0.01476 34.9744,74.79981 34.9744,182.19116zm-34.9744,-196.79346c-28.70531,0 -44.19573,101.39464 -44.19573,196.77866c0,95.41315 15.49042,196.79343 44.19573,196.79343c28.7056,0 44.2241,-101.39503 44.2241,-196.79343c-0.00936,-95.38403 -15.5185,-196.77866 -44.2241,-196.77866zm81.90987,196.79346c0,100.47115 -36.75732,182.20545 -81.90987,182.20545c-45.14317,0 -81.88179,-81.74908 -81.88179,-182.20545c0,-100.45687 36.73863,-182.19116 81.88179,-182.19116c45.15255,-0.01476 81.90987,81.73429 81.90987,182.19116zm-81.90987,-196.79346c-50.2324,0 -91.12214,88.27328 -91.12214,196.77866c0,108.52017 40.88974,196.79343 91.12214,196.79343c50.25111,0 91.13178,-88.27327 91.13178,-196.79343c0,-108.50538 -40.88067,-196.77866 -91.13178,-196.77866z" stroke="#fff47d" fill="none"/>
  <g id="svg_24">
   <text stroke="#000" stroke-width="0" stroke-dasharray="5,2,2,2,2,2" transform="matrix(6.72428 0 0 11.3388 -693.482 -969.054)" font-style="normal" font-weight="normal" xml:space="preserve" text-anchor="start" font-family="'Calistoga'" font-size="24" id="svg_1" y="108.551" x="117.76078" fill="#ffbf86">E</text>
   <text stroke="#000" transform="matrix(9.92781 0 0 -12.1571 -3701.37 4878.46)" xml:space="preserve" text-anchor="start" font-family="'Calistoga'" font-size="24" id="svg_11" y="383.3213" x="378.06154" stroke-dasharray="5,2,2,2,2,2" stroke-width="0" fill="#c2f784">O</text>
   <rect stroke="#000" id="svg_12" height="53" width="26.41667" y="208.77666" x="113.6726" stroke-dasharray="5,2,2,2,2,2" stroke-width="0" fill="#ffbf86"/>
  </g>
 </g>
</svg>