<svg width="800" height="600" xmlns="http://www.w3.org/2000/svg" stroke="null" style="vector-effect: non-scaling-stroke;">

 <g stroke="null">
  <title stroke="null">Layer 1</title>
  <rect id="svg_14" height="91.42872" width="22.85718" y="130.71497" x="223.57245" stroke-width="0" stroke="#fff47d" fill="none"/>
  <rect id="svg_15" height="0" width="0.71429" y="342.14389" x="305.71544" stroke-width="0" stroke="#fff47d" fill="none"/>
  <path stroke="#fff47d" stroke-width="5" id="svg_20" d="m145.07978,440.64263l465.0263,0.17458l-15.09021,21.92955l-434.66772,-0.52371l-15.2684,-21.58042l0.00002,0zm3.19571,-291.71277l458.81241,-0.52371l13.31525,22.49637l-485.62065,0.17458l13.49299,-22.14724zm-45.27918,146.17333l549.01546,-0.52371l-0.70967,22.49639l-547.95072,-0.34913l-0.35507,-21.62355zm549.46993,2.08653c0,148.93137 -123.24168,270.08855 -274.75108,270.08855c-151.44394,0 -274.66266,-121.17908 -274.66266,-270.08855c0,-148.9102 123.24099,-270.06736 274.66266,-270.06736c151.50942,-0.02188 274.75108,121.15716 274.75108,270.06736zm-274.72951,-291.71279c-163.53304,0 -296.6096,130.8501 -296.6096,291.69085c0,160.86267 133.07658,291.71275 296.6096,291.71275c163.62208,0 296.67643,-130.85008 296.67643,-291.71275c0,-160.84075 -133.05433,-291.69085 -296.67643,-291.69085zm83.23698,291.71279c0,159.14556 -43.85076,270.08855 -83.23698,270.08855c-39.34165,0 -83.19172,-110.94299 -83.19172,-270.08855c0,-159.18938 43.82845,-270.06736 83.19172,-270.06736c39.36398,-0.02188 83.23698,110.87798 83.23698,270.06736zm-83.23698,-291.71279c-68.31692,0 -105.1832,150.30028 -105.1832,291.69085c0,141.43374 36.86628,291.71275 105.1832,291.71275c68.31762,0 105.25071,-150.30087 105.25071,-291.71275c-0.02227,-141.39057 -36.9331,-291.69085 -105.25071,-291.69085zm194.94061,291.71279c0,148.93137 -87.48024,270.08855 -194.94061,270.08855c-107.43804,0 -194.87378,-121.17908 -194.87378,-270.08855c0,-148.9102 87.43574,-270.06736 194.87378,-270.06736c107.46037,-0.02188 194.94061,121.15716 194.94061,270.06736zm-194.94061,-291.71279c-119.5501,0 -216.86524,130.8501 -216.86524,291.69085c0,160.86267 97.31514,291.71275 216.86524,291.71275c119.59465,0 216.88819,-130.85008 216.88819,-291.71275c0,-160.84075 -97.29354,-291.69085 -216.88819,-291.69085z" fill="none"/>
  <g stroke="null" id="svg_24">
   <text stroke="#000" stroke-width="0" stroke-dasharray="5,2,2,2,2,2" transform="matrix(16.0034 0 0 16.8078 -1873.11 -1722.5)" font-style="normal" font-weight="normal" xml:space="preserve" text-anchor="start" font-family="'Calistoga'" font-size="24" id="svg_1" y="121.45252" x="135.38645" fill="#ffbf86">E</text>
   <text stroke="#000" transform="matrix(23.6276 0 0 -18.0209 -9031.69 6945.43)" xml:space="preserve" text-anchor="start" font-family="'Calistoga'" font-size="24" id="svg_11" y="371.28826" x="389.99972" stroke-dasharray="5,2,2,2,2,2" stroke-width="0" fill="#c2f784">O</text>
   <rect stroke="#000" id="svg_12" height="78.56347" width="62.87009" y="240.27757" x="329.93904" stroke-dasharray="5,2,2,2,2,2" stroke-width="0" fill="#ffbf86"/>
  </g>
 </g>
</svg>